<svg width="60" height="60" viewBox="0 0 60 60" fill="none" xmlns="http://www.w3.org/2000/svg">
<path d="M34.73 22.1298L35.874 22.1528L38.982 18.5787L39.132 17.0641C36.662 14.5375 33.412 13 29.855 13C23.415 13 17.979 18.0393 16.369 24.8657C16.709 24.5932 17.434 24.7967 17.434 24.7967L23.646 23.6214C23.646 23.6214 23.966 23.0119 24.126 23.0499C25.4594 21.3723 27.2992 20.3431 29.2699 20.1721C31.2407 20.0011 33.1929 20.7013 34.73 22.1298Z" fill="#EA4335"/>
<path d="M43.36 24.8784C42.6459 21.857 41.1807 19.1408 39.144 17.063L34.742 22.1253C35.6454 22.9603 36.3745 24.0176 36.8755 25.2195C37.3765 26.4214 37.6368 27.7373 37.637 29.0701V29.9637C39.779 29.9637 41.517 31.9681 41.517 34.4257C41.517 36.8832 39.774 38.8877 37.637 38.8877H29.875L29.098 39.7847V45.1414L29.875 46.0303H37.637C40.3102 46.0221 42.8718 44.7967 44.7614 42.6222C46.651 40.4477 47.7147 37.501 47.72 34.4268C47.716 30.4754 45.984 26.9748 43.35 24.8784H43.36Z" fill="#4285F4"/>
<path d="M22.0939 46.0385H29.8539V38.8947H22.0939C21.5429 38.895 20.9982 38.7589 20.4969 38.4956L19.3769 38.8901L16.2689 42.4643L15.9969 43.6718C17.7456 45.2158 19.8903 46.049 22.0949 46.0408L22.0939 46.0385Z" fill="#34A853"/>
<path d="M22.094 22.8237C19.4182 22.8286 16.8532 24.0532 14.9611 26.229C13.0691 28.4049 12.0042 31.3547 12 34.4318C12 36.2237 12.3612 37.9911 13.0552 39.5954C13.7492 41.1996 14.7572 42.597 16 43.6778L20.5 38.5028C19.8184 38.1501 19.2398 37.5785 18.8339 36.8567C18.428 36.135 18.2121 35.2937 18.212 34.4341C18.212 31.9708 19.955 29.9721 22.092 29.9721C22.8392 29.9736 23.5702 30.2226 24.1976 30.6892C24.825 31.1558 25.3223 31.8203 25.63 32.6033L30.13 27.4283C28.284 24.6338 25.37 22.8283 22.09 22.8283L22.094 22.8237Z" fill="#FBBC05"/>
</svg>
