<svg width="256" height="256" viewBox="0 0 256 256" fill="none" xmlns="http://www.w3.org/2000/svg">
<g clip-path="url(#clip0_113_13)">
<circle cx="128" cy="128" r="128" fill="black"/>
<path d="M116.606 159.285L104.541 159C101.818 159 99.6013 159.032 97.8913 159.095C95.4846 156.182 90.4813 150.513 82.8813 142.09C75.2813 133.603 71.0696 129.36 70.2463 129.36H70.1513V150.735C70.1513 151.875 70.563 152.73 71.3863 153.3C72.273 153.87 73.983 154.155 76.5163 154.155L77.7513 159.285C70.1513 159.095 64.958 159 62.1713 159C59.3846 159 55.553 159.095 50.6763 159.285L49.5363 154.155C52.5763 154.092 54.5713 153.775 55.5213 153.205C56.5346 152.635 57.0413 151.812 57.0413 150.735V99.815C57.0413 98.675 56.598 97.82 55.7113 97.25C54.888 96.68 53.2096 96.395 50.6763 96.395L49.4413 91.265C57.0413 91.455 62.2346 91.55 65.0213 91.55C67.8713 91.55 71.703 91.455 76.5163 91.265L77.6563 96.395C74.6163 96.4583 72.5896 96.775 71.5763 97.345C70.6263 97.915 70.1513 98.7383 70.1513 99.815V122.52C74.0146 118.847 78.7646 113.97 84.4013 107.89C90.038 101.81 92.8563 98.39 92.8563 97.63C92.8563 96.8067 90.7663 96.395 86.5863 96.395L85.3513 91.265C92.9513 91.455 98.1446 91.55 100.931 91.55C103.718 91.55 107.55 91.455 112.426 91.265L113.566 96.395C107.106 96.585 102.99 97.63 101.216 99.53L80.1263 122.045L106.631 150.735C109.038 153.015 111.951 154.155 115.371 154.155L116.606 159.285ZM185.166 91.17L194.571 91.55C196.914 91.55 200.493 91.455 205.306 91.265L206.446 96.395C203.406 96.4583 201.379 96.775 200.366 97.345C199.416 97.915 198.941 98.7383 198.941 99.815V150.735C198.941 151.875 199.353 152.73 200.176 153.3C201.063 153.87 202.773 154.155 205.306 154.155L206.541 159.285C198.941 159.095 193.748 159 190.961 159C188.174 159 184.343 159.095 179.466 159.285L178.326 154.155C181.366 154.092 183.361 153.775 184.311 153.205C185.324 152.635 185.831 151.812 185.831 150.735V111.215C183.994 115.078 180.448 122.52 175.191 133.54C169.934 144.497 165.944 152.857 163.221 158.62L160.751 159.76L135.671 109.22V150.735C135.671 151.875 136.083 152.73 136.906 153.3C137.793 153.87 139.503 154.155 142.036 154.155L143.271 159.285C135.671 159.095 130.984 159 129.211 159C127.438 159 124.113 159.095 119.236 159.285L118.096 154.155C123.543 154.028 126.266 152.888 126.266 150.735V99.815C126.266 97.535 123.923 96.395 119.236 96.395L118.001 91.265C125.601 91.455 130.731 91.55 133.391 91.55C136.051 91.55 138.204 91.455 139.851 91.265C141.054 94.8117 143.239 99.72 146.406 105.99C149.636 112.197 151.694 116.345 152.581 118.435C154.038 122.298 157.838 129.708 163.981 140.665C166.514 134.965 168.731 129.867 170.631 125.37C172.594 120.81 174.273 116.978 175.666 113.875C177.123 110.772 178.484 107.763 179.751 104.85C183.361 96.9333 185.166 92.3733 185.166 91.17Z" fill="white"/>
</g>
<defs>
<clipPath id="clip0_113_13">
<rect width="256" height="256" fill="white"/>
</clipPath>
</defs>
</svg>
