<svg viewBox="0 0 288 491" fill="currentColor" xmlns="http://www.w3.org/2000/svg">
  <path
    d="M245.503 488C411.5 240 -7.00005 257.5 19.0026 78.5C-13.5001 150 -7 220.5 84.4999 287C205.5 361 272.5 371.5 245.503 488Z"
    fill="currentColor" />
  <path d="M1 490.5V393C25.4932 441.227 46.5654 458.823 83.7225 489.851L84.4999 490.5H1Z"
    fill="currentColor" />
  <path
    d="M245.503 488C411.5 240 -7.00005 257.5 19.0026 78.5C-13.5001 150 -7 220.5 84.4999 287C205.5 361 272.5 371.5 245.503 488Z"
    stroke="currentColor" />
  <path d="M1 490.5V393C25.4932 441.227 46.5654 458.823 83.7225 489.851L84.4999 490.5H1Z"
    stroke="currentColor" />
  <path
    d="M228 78.5C274 117.5 255.5 149.5 287.5 181C240.413 153.466 216.33 136.043 188.5 92C186.174 111.897 240.34 168.576 274 183.5C258.177 182.649 203.352 160.338 186 147C186 147 200.5 155 211 149.5C171.5 137.5 156.5 110.5 142.5 90C142.5 90 151 102 168.5 105C123.5 67.5 122.5 22.5 140.5 2C140.5 84 225 34.5 246.5 139.5C248.5 105 245 105 228 78.5Z"
    fill="currentColor" stroke="currentColor" />
</svg>